<svg width="16" height="16" viewBox="0 0 16 16" fill="none" xmlns="http://www.w3.org/2000/svg">
<path fill-rule="evenodd" clip-rule="evenodd" d="M0.666672 1.892C0.666672 1.56702 0.795769 1.25535 1.02556 1.02556C1.25536 0.795763 1.56703 0.666666 1.89201 0.666666H14.1067C14.2677 0.666403 14.4272 0.697908 14.5761 0.759377C14.725 0.820846 14.8602 0.911072 14.9742 1.02489C15.0881 1.13871 15.1785 1.27388 15.2401 1.42267C15.3017 1.57146 15.3334 1.73095 15.3333 1.892V14.1067C15.3335 14.2677 15.3019 14.4273 15.2404 14.5761C15.1788 14.725 15.0886 14.8603 14.9747 14.9742C14.8608 15.0881 14.7256 15.1785 14.5768 15.2401C14.4279 15.3017 14.2684 15.3334 14.1073 15.3333H1.89201C1.73104 15.3333 1.57164 15.3016 1.42294 15.24C1.27423 15.1784 1.13912 15.0881 1.02533 14.9742C0.911537 14.8604 0.821293 14.7252 0.759753 14.5765C0.698214 14.4277 0.666584 14.2683 0.666672 14.1073V1.892ZM6.47201 6.25867H8.45801V7.256C8.74467 6.68267 9.47801 6.16667 10.58 6.16667C12.6927 6.16667 13.1933 7.30867 13.1933 9.404V13.2853H11.0553V9.88133C11.0553 8.688 10.7687 8.01467 10.0407 8.01467C9.03067 8.01467 8.61067 8.74067 8.61067 9.88133V13.2853H6.47201V6.25867ZM2.80534 13.194H4.94401V6.16667H2.80534V13.1933V13.194ZM5.25001 3.87467C5.25404 4.05778 5.22145 4.23986 5.15417 4.41021C5.08688 4.58056 4.98624 4.73576 4.85816 4.86669C4.73008 4.99762 4.57714 5.10165 4.40831 5.17267C4.23948 5.24369 4.05817 5.28028 3.87501 5.28028C3.69185 5.28028 3.51053 5.24369 3.3417 5.17267C3.17287 5.10165 3.01993 4.99762 2.89185 4.86669C2.76377 4.73576 2.66313 4.58056 2.59585 4.41021C2.52856 4.23986 2.49597 4.05778 2.50001 3.87467C2.50792 3.51524 2.65626 3.17319 2.91326 2.92179C3.17026 2.67039 3.51549 2.52961 3.87501 2.52961C4.23452 2.52961 4.57975 2.67039 4.83675 2.92179C5.09375 3.17319 5.24209 3.51524 5.25001 3.87467V3.87467Z" fill="white"/>
</svg>
